<svg width="1424" height="264" viewBox="0 0 1424 264" fill="none" xmlns="http://www.w3.org/2000/svg">
<path d="M658.399 63.22C675.889 63.22 689.869 68.92 700.349 80.3C710.819 91.69 716.059 106.94 716.059 126.06V200.34C716.059 211.21 707.249 220.02 696.379 220.02C685.509 220.02 676.699 211.21 676.699 200.34V128.8C676.699 119.65 674.459 112.53 669.989 107.45C665.509 102.37 659.209 99.82 651.079 99.82C642.129 99.82 635.169 102.77 630.179 108.67C625.189 114.57 622.709 123.11 622.709 134.29V200.34C622.709 211.21 613.899 220.02 603.029 220.02C592.159 220.02 583.349 211.21 583.349 200.34V128.8C583.349 119.65 581.109 112.53 576.639 107.45C572.169 102.37 565.859 99.82 557.729 99.82C548.979 99.82 542.019 102.77 536.829 108.67C531.639 114.57 529.049 123.11 529.049 134.29V200.34C529.049 211.21 520.239 220.02 509.369 220.02C498.499 220.02 489.689 211.21 489.689 200.34V83.66C489.689 74.73 496.929 67.49 505.859 67.49H512.879C521.809 67.49 529.049 74.73 529.049 83.66C538.199 70.04 552.329 63.22 571.449 63.22C590.159 63.22 603.979 70.54 612.939 85.18C623.119 70.54 638.269 63.22 658.399 63.22Z" fill="#131B28"/>
<path d="M879.56 200.95C863.9 216.51 844.79 224.29 822.21 224.29C799.63 224.29 780.57 216.51 765.01 200.95C749.45 185.39 741.67 166.33 741.67 143.75C741.67 121.18 749.45 102.11 765.01 86.5499C780.57 70.9899 799.63 63.21 822.21 63.21C844.79 63.21 863.9 70.9899 879.56 86.5499C895.22 102.11 903.05 121.17 903.05 143.75C903.05 166.33 895.22 185.4 879.56 200.95ZM792.77 173.96C800.6 181.89 810.41 185.86 822.21 185.86C834 185.86 843.87 181.89 851.8 173.96C859.73 166.03 863.7 155.96 863.7 143.76C863.7 131.56 859.73 121.49 851.8 113.56C843.87 105.63 834 101.66 822.21 101.66C810.41 101.66 800.6 105.63 792.77 113.56C784.94 121.49 781.03 131.56 781.03 143.76C781.03 155.96 784.94 166.03 792.77 173.96Z" fill="#131B28"/>
<path d="M1066.1 6.47998C1076.97 6.47998 1085.78 15.29 1085.78 26.16V202.03C1085.78 211.97 1077.72 220.03 1067.78 220.03H1064.42C1054.48 220.03 1046.42 211.97 1046.42 202.03C1034.83 216.88 1018.36 224.3 996.999 224.3C976.459 224.3 958.919 216.52 944.379 200.96C929.839 185.4 922.569 166.34 922.569 143.76C922.569 121.19 929.839 102.12 944.379 86.56C958.919 71 976.459 63.22 996.999 63.22C1018.35 63.22 1034.83 70.65 1046.42 85.49V26.16C1046.43 15.29 1055.24 6.47998 1066.1 6.47998ZM973.979 174.72C982.009 182.76 992.129 186.77 1004.33 186.77C1016.53 186.77 1026.6 182.76 1034.53 174.72C1042.46 166.69 1046.43 156.37 1046.43 143.76C1046.43 131.15 1042.46 120.83 1034.53 112.8C1026.6 104.77 1016.53 100.75 1004.33 100.75C992.129 100.75 982.009 104.77 973.979 112.8C965.949 120.84 961.929 131.16 961.929 143.76C961.929 156.37 965.939 166.69 973.979 174.72Z" fill="#131B28"/>
<path d="M1141.3 49.1899C1134.79 49.1899 1129.15 46.8 1124.37 42.02C1119.59 37.24 1117.2 31.6 1117.2 25.09C1117.2 18.58 1119.59 12.8899 1124.37 8.00995C1129.15 3.12995 1134.79 0.689941 1141.3 0.689941C1148.01 0.689941 1153.76 3.12995 1158.54 8.00995C1163.32 12.8899 1165.71 18.59 1165.71 25.09C1165.71 31.6 1163.32 37.24 1158.54 42.02C1153.75 46.8 1148.01 49.1899 1141.3 49.1899ZM1121.78 200.35V87.1699C1121.78 76.2999 1130.59 67.4899 1141.46 67.4899C1152.33 67.4899 1161.14 76.2999 1161.14 87.1699V200.35C1161.14 211.22 1152.33 220.03 1141.46 220.03C1130.58 220.02 1121.78 211.21 1121.78 200.35Z" fill="#131B28"/>
<path d="M1279.18 22.1098C1279.18 30.9398 1273.25 38.8598 1264.65 40.8298C1252.78 43.5498 1246.85 51.9298 1246.85 65.9698V67.4998H1260.27C1270.72 67.4998 1279.18 75.9698 1279.18 86.4098C1279.18 96.8598 1270.71 105.32 1260.27 105.32H1246.85V202.02C1246.85 211.96 1238.79 220.02 1228.85 220.02H1225.49C1215.55 220.02 1207.49 211.96 1207.49 202.02V105.32H1204.44C1193.99 105.32 1185.53 96.8498 1185.53 86.4098C1185.53 75.9598 1194 67.4998 1204.44 67.4998H1207.49V65.9698C1207.49 44.4198 1213.49 28.0398 1225.49 16.8598C1233.42 9.46978 1243.92 4.8298 1257 2.9498C1268.68 1.2598 1279.18 10.2998 1279.18 22.0998V22.1098Z" fill="#131B28"/>
<path d="M1323.87 49.1899C1317.36 49.1899 1311.72 46.8 1306.94 42.02C1302.16 37.24 1299.77 31.6 1299.77 25.09C1299.77 18.58 1302.16 12.8899 1306.94 8.00995C1311.72 3.12995 1317.36 0.689941 1323.87 0.689941C1330.58 0.689941 1336.33 3.12995 1341.11 8.00995C1345.89 12.8899 1348.28 18.59 1348.28 25.09C1348.28 31.6 1345.89 37.24 1341.11 42.02C1336.33 46.8 1330.58 49.1899 1323.87 49.1899ZM1304.35 200.35V87.1699C1304.35 76.2999 1313.16 67.4899 1324.03 67.4899C1334.9 67.4899 1343.71 76.2999 1343.71 87.1699V200.35C1343.71 211.22 1334.9 220.03 1324.03 220.03C1313.16 220.02 1304.35 211.21 1304.35 200.35Z" fill="#131B28"/>
<path d="M1399.22 49.1899C1392.71 49.1899 1387.07 46.8 1382.29 42.02C1377.51 37.24 1375.12 31.6 1375.12 25.09C1375.12 18.58 1377.51 12.8899 1382.29 8.00995C1387.07 3.12995 1392.71 0.689941 1399.22 0.689941C1405.93 0.689941 1411.68 3.12995 1416.46 8.00995C1421.24 12.8899 1423.63 18.59 1423.63 25.09C1423.63 31.6 1421.24 37.24 1416.46 42.02C1411.67 46.8 1405.93 49.1899 1399.22 49.1899ZM1379.69 200.35V87.1699C1379.69 76.2999 1388.5 67.4899 1399.37 67.4899C1410.24 67.4899 1419.05 76.2999 1419.05 87.1699V200.35C1419.05 211.22 1410.24 220.03 1399.37 220.03C1388.5 220.02 1379.69 211.21 1379.69 200.35Z" fill="#131B28"/>
<path d="M4.58992 202.26L35.9799 136.94C50.9699 105.75 94.9299 104.51 111.66 134.8L122.28 154.04L81.3699 239.17C71.1799 260.37 45.7299 269.3 24.5299 259.11C3.32992 248.91 -5.60008 223.46 4.58992 202.26Z" fill="#80BC04"/>
<path d="M223.59 165.45L210.12 140.74L157.41 44.07C141.94 11.88 96.1 11.88 80.63 44.07L71.76 62.52L36 136.93C50.99 105.74 94.95 104.5 111.68 134.79L122.3 154.03L166.24 233.59C185.29 273.22 241.72 273.22 260.76 233.59L298.29 165.64C282.02 195.07 239.68 194.96 223.59 165.45Z" fill="#FEB902"/>
<path d="M304.69 154.03L315.31 134.79C332.04 104.5 376 105.74 390.99 136.93L355.23 62.52L346.36 44.07C330.89 11.88 285.05 11.88 269.58 44.07L210.12 140.74L223.59 165.45C239.68 194.96 282.02 195.08 298.28 165.65L304.69 154.03Z" fill="#09A4EF"/>
<path d="M422.379 202.26L390.989 136.94C375.999 105.75 332.039 104.51 315.309 134.8L304.689 154.04L345.599 239.17C355.789 260.37 381.239 269.3 402.439 259.11C423.649 248.91 432.579 223.46 422.379 202.26Z" fill="#F15325"/>
</svg>
