<svg width="149" height="50" viewBox="0 0 149 50" fill="none" xmlns="http://www.w3.org/2000/svg">
<path d="M54.6148 17.041C47.7426 17.041 42.1494 22.6342 42.1494 29.5064C42.1494 36.3786 47.7426 41.9717 54.6148 41.9717C61.487 41.9717 67.0801 36.3786 67.0801 29.5064C67.0801 22.6342 61.487 17.041 54.6148 17.041ZM54.6148 35.5004C51.3123 35.5004 48.6207 32.8088 48.6207 29.5064C48.6207 26.2039 51.3123 23.5123 54.6148 23.5123C57.9172 23.5123 60.6088 26.2039 60.6088 29.5064C60.6088 32.8088 57.9172 35.5004 54.6148 35.5004Z" fill="#09A4EF"/>
<path d="M90.3884 7C88.594 7 87.1623 8.45079 87.1623 10.2261V18.5682C85.387 17.5946 83.3444 17.0219 81.1682 17.0219C74.2961 17.0219 68.7029 22.6151 68.7029 29.4873C68.7029 36.3595 74.2961 41.9526 81.1682 41.9526C88.0404 41.9526 93.6336 36.3595 93.6336 29.4873V10.2452C93.6145 8.45079 92.1828 7 90.3884 7ZM81.1682 35.5004C77.8658 35.5004 75.1742 32.8088 75.1742 29.5064C75.1742 26.2039 77.8658 23.5123 81.1682 23.5123C84.4707 23.5123 87.1623 26.2039 87.1623 29.5064C87.1623 32.8088 84.4707 35.5004 81.1682 35.5004Z" fill="#FEB902"/>
<path d="M116.732 30.9572H108.638C106.843 30.9572 105.412 29.5064 105.412 27.7311C105.412 25.9367 106.862 24.505 108.638 24.505H116.732C118.526 24.505 119.958 25.9558 119.958 27.7311C119.958 29.5064 118.526 30.9572 116.732 30.9572Z" fill="#09A4EF"/>
<path d="M26.8588 28.8382C25.0644 28.8382 23.6327 27.3874 23.6327 25.6121C23.6327 24.4667 22.6974 23.5314 21.552 23.5314C20.4066 23.5314 19.4713 24.4667 19.4713 25.6121C19.4713 27.4065 18.0205 28.8382 16.2451 28.8382C14.4698 28.8382 13.019 27.3874 13.019 25.6121C13.019 20.897 16.856 17.0601 21.5711 17.0601C26.2862 17.0601 30.1231 20.897 30.1231 25.6121C30.0849 27.3874 28.6342 28.8382 26.8588 28.8382Z" fill="#FEB902"/>
<path d="M37.4917 28.8382C35.6973 28.8382 34.2655 27.3874 34.2655 25.6121C34.2655 24.4667 33.3302 23.5314 32.1848 23.5314C31.0394 23.5314 30.1041 24.4667 30.1041 25.6121C30.1041 27.4065 28.6533 28.8382 26.878 28.8382C25.1026 28.8382 23.6519 27.3874 23.6519 25.6121C23.6519 20.897 27.4888 17.0601 32.2039 17.0601C36.919 17.0601 40.7559 20.897 40.7559 25.6121C40.7178 27.3874 39.267 28.8382 37.4917 28.8382Z" fill="#F15325"/>
<path d="M37.4917 41.9716C35.6973 41.9716 34.2656 40.5208 34.2656 38.7455V25.5929C34.2656 23.7985 35.7164 22.3668 37.4917 22.3668C39.2861 22.3668 40.7178 23.8176 40.7178 25.5929V38.7264C40.7178 40.5208 39.267 41.9716 37.4917 41.9716Z" fill="url(#paint0_linear_403_199)"/>
<path d="M113.124 19.9616C112.437 19.9616 111.864 20.5152 111.864 21.2215V38.7456C111.864 40.5018 110.451 41.9526 108.695 41.9717C106.882 42.0099 105.393 40.4636 105.393 38.6501V20.2862C105.393 19.5417 105.507 18.8354 105.736 18.1672C106.271 19.2362 107.359 19.9616 108.638 19.9616H113.124Z" fill="#09A4EF"/>
<path d="M99.5513 41.9719C97.7569 41.9719 96.3252 40.5211 96.3252 38.7457V23.8369C96.3252 22.0425 97.776 20.6108 99.5513 20.6108C101.327 20.6108 102.777 22.0616 102.777 23.8369V38.7457C102.777 40.5211 101.346 41.9719 99.5513 41.9719Z" fill="#F15325"/>
<path d="M99.5513 19.9617C99.4368 19.9617 99.3413 19.9617 99.2268 19.9426C99.1313 19.9235 99.0168 19.9235 98.9214 19.8853C98.8259 19.8662 98.7114 19.8471 98.6159 19.809C98.5205 19.7708 98.425 19.7517 98.3105 19.6944C98.215 19.6563 98.1196 19.6181 98.0242 19.5608C97.9287 19.5035 97.8333 19.4654 97.7569 19.389C97.6615 19.3317 97.5851 19.2745 97.5087 19.1981C97.4324 19.1408 97.3369 19.0645 97.2797 18.9881C97.2033 18.9118 97.127 18.8354 97.0697 18.7591C96.9933 18.6827 96.9361 18.5872 96.8788 18.5109C96.8215 18.4154 96.7643 18.3391 96.7261 18.2436C96.6688 18.1482 96.6306 18.0527 96.5925 17.9573C96.5543 17.8619 96.5161 17.7664 96.4779 17.6519C96.4397 17.5564 96.4206 17.4419 96.4016 17.3464C96.3825 17.251 96.3634 17.1365 96.3443 17.041C96.3252 16.9265 96.3252 16.831 96.3252 16.7165C96.3252 16.602 96.3252 16.5065 96.3443 16.392C96.3634 16.2965 96.3634 16.182 96.4016 16.0865C96.4206 15.9911 96.4397 15.8766 96.4779 15.7811C96.5161 15.6857 96.5352 15.5902 96.5925 15.4757C96.6306 15.3802 96.6688 15.2848 96.7261 15.1893C96.7833 15.0939 96.8215 14.9984 96.8788 14.9221C96.9361 14.8266 96.9933 14.7503 97.0697 14.6739C97.127 14.5976 97.2033 14.5021 97.2797 14.4449C97.9478 13.7767 98.9214 13.414 99.8758 13.5095C99.9713 13.5286 100.086 13.5286 100.181 13.5667C100.277 13.5858 100.391 13.6049 100.487 13.6431C100.582 13.6813 100.678 13.7004 100.792 13.7576C100.888 13.7958 100.983 13.8531 101.078 13.8913C101.174 13.9485 101.269 13.9867 101.346 14.044C101.441 14.1012 101.518 14.1585 101.594 14.2349C101.67 14.3112 101.766 14.3685 101.823 14.4449C101.899 14.5212 101.976 14.5976 102.033 14.6739C102.109 14.7503 102.167 14.8457 102.224 14.9221C102.281 15.0175 102.338 15.0939 102.396 15.1893C102.453 15.2848 102.491 15.3802 102.529 15.4757C102.567 15.5711 102.606 15.6666 102.644 15.7811C102.682 15.8766 102.701 15.9911 102.72 16.0865C102.739 16.182 102.758 16.2965 102.777 16.392C102.796 16.5065 102.796 16.602 102.796 16.7165C102.796 17.5755 102.453 18.3964 101.842 19.0072C101.766 19.0836 101.689 19.1599 101.613 19.2172C101.537 19.2745 101.441 19.3508 101.365 19.4081C101.269 19.4654 101.193 19.5226 101.098 19.5799C101.002 19.6372 100.907 19.6753 100.811 19.7135C100.716 19.7517 100.62 19.7899 100.506 19.8281C100.41 19.8662 100.296 19.8853 100.2 19.9044C100.105 19.9235 99.9904 19.9426 99.8949 19.9617C99.7613 19.9617 99.6658 19.9617 99.5513 19.9617Z" fill="#09A4EF"/>
<path d="M125.131 41.9717C123.336 41.9717 121.905 40.5209 121.905 38.7456V23.8368C121.905 22.0424 123.356 20.6107 125.131 20.6107C126.906 20.6107 128.357 22.0615 128.357 23.8368V38.7456C128.357 40.5209 126.906 41.9717 125.131 41.9717Z" fill="#F15325"/>
<path d="M125.131 19.9616C125.016 19.9616 124.921 19.9616 124.806 19.9426C124.711 19.9235 124.596 19.9235 124.501 19.8853C124.406 19.8662 124.291 19.8471 124.196 19.8089C124.1 19.7707 123.986 19.7517 123.89 19.6944C123.795 19.6562 123.699 19.618 123.604 19.5608C123.508 19.5035 123.413 19.4653 123.337 19.389C123.241 19.3317 123.165 19.2744 123.088 19.1981C123.012 19.1408 122.917 19.0644 122.859 18.9881C122.783 18.9117 122.707 18.8354 122.649 18.759C122.592 18.6827 122.516 18.5872 122.458 18.5109C122.401 18.4154 122.344 18.339 122.287 18.2436C122.229 18.1482 122.191 18.0527 122.153 17.9573C122.115 17.8618 122.077 17.7664 122.038 17.6518C122 17.5564 121.981 17.4418 121.962 17.3464C121.943 17.251 121.924 17.1364 121.905 17.041C121.886 16.9264 121.886 16.831 121.886 16.7165C121.886 16.6019 121.886 16.5065 121.905 16.3919C121.924 16.2965 121.924 16.1819 121.962 16.0865C121.981 15.9911 122 15.8765 122.038 15.7811C122.077 15.6856 122.096 15.5902 122.153 15.4756C122.191 15.3802 122.248 15.2847 122.287 15.1893C122.344 15.0939 122.401 14.9984 122.458 14.922C122.516 14.8266 122.573 14.7502 122.649 14.6739C122.707 14.5975 122.783 14.5021 122.859 14.4448C122.936 14.3685 123.012 14.2921 123.088 14.2348C123.165 14.1776 123.26 14.1012 123.337 14.0439C123.432 13.9867 123.508 13.9294 123.604 13.8912C123.699 13.834 123.795 13.7958 123.89 13.7576C123.986 13.7194 124.081 13.6812 124.196 13.6431C124.291 13.6049 124.406 13.5858 124.501 13.5667C124.596 13.5476 124.711 13.5285 124.806 13.5094C125.016 13.4903 125.226 13.4903 125.436 13.5094C125.551 13.5285 125.646 13.5285 125.742 13.5667C125.837 13.5858 125.952 13.6049 126.047 13.6431C126.143 13.6812 126.257 13.7003 126.353 13.7576C126.448 13.7958 126.544 13.853 126.639 13.8912C126.734 13.9485 126.83 13.9867 126.906 14.0439C127.002 14.1012 127.078 14.1585 127.154 14.2348C127.231 14.3112 127.307 14.3685 127.383 14.4448C127.46 14.5212 127.536 14.5975 127.593 14.6739C127.651 14.7502 127.727 14.8457 127.784 14.922C127.842 15.0175 127.899 15.0939 127.956 15.1893C128.013 15.2847 128.052 15.3802 128.09 15.4756C128.128 15.5711 128.166 15.6665 128.204 15.7811C128.242 15.8765 128.262 15.9911 128.281 16.0865C128.3 16.1819 128.319 16.2965 128.319 16.3919C128.338 16.5065 128.338 16.6019 128.338 16.7165C128.338 16.831 128.338 16.9264 128.319 17.041C128.319 17.1555 128.3 17.251 128.281 17.3464C128.262 17.4418 128.223 17.5564 128.204 17.6518C128.166 17.7473 128.147 17.8618 128.09 17.9573C128.052 18.0527 128.013 18.1482 127.956 18.2436C127.899 18.339 127.861 18.4345 127.784 18.5109C127.727 18.6063 127.67 18.6827 127.593 18.759C127.536 18.8354 127.46 18.9117 127.383 18.9881C127.307 19.0644 127.231 19.1408 127.154 19.1981C127.078 19.2553 126.983 19.3317 126.906 19.389C126.811 19.4462 126.734 19.5035 126.639 19.5608C126.544 19.618 126.448 19.6562 126.353 19.6944C126.257 19.7326 126.162 19.7707 126.047 19.8089C125.952 19.8471 125.837 19.8662 125.742 19.8853C125.646 19.9044 125.532 19.9235 125.436 19.9426C125.341 19.9616 125.226 19.9616 125.131 19.9616Z" fill="#09A4EF"/>
<path d="M133.339 41.9717C131.545 41.9717 130.113 40.5209 130.113 38.7456V23.8368C130.113 22.0424 131.564 20.6107 133.339 20.6107C135.115 20.6107 136.565 22.0615 136.565 23.8368V38.7456C136.585 40.5209 135.134 41.9717 133.339 41.9717Z" fill="#80BC04"/>
<path d="M133.339 19.9616C133.225 19.9616 133.129 19.9616 133.015 19.9426C132.919 19.9235 132.805 19.9235 132.709 19.8853C132.614 19.8662 132.499 19.8471 132.404 19.8089C132.309 19.7707 132.213 19.7517 132.099 19.6944C132.003 19.6562 131.908 19.618 131.812 19.5608C131.717 19.5035 131.621 19.4653 131.545 19.389C131.45 19.3317 131.373 19.2744 131.297 19.1981C131.221 19.1408 131.125 19.0644 131.068 18.9881C130.991 18.9117 130.915 18.8354 130.858 18.759C130.801 18.6827 130.724 18.5872 130.667 18.5109C130.61 18.4154 130.552 18.339 130.495 18.2436C130.438 18.1482 130.4 18.0527 130.361 17.9573C130.323 17.8618 130.285 17.7664 130.247 17.6518C130.209 17.5564 130.19 17.4418 130.171 17.3464C130.151 17.251 130.132 17.1364 130.113 17.041C130.094 16.9264 130.094 16.831 130.094 16.7165C130.094 16.6019 130.094 16.5065 130.113 16.3919C130.132 16.2965 130.132 16.1819 130.171 16.0865C130.19 15.9911 130.209 15.8765 130.247 15.7811C130.285 15.6856 130.304 15.5902 130.361 15.4756C130.4 15.3802 130.438 15.2847 130.495 15.1893C130.552 15.0939 130.591 14.9984 130.667 14.922C130.724 14.8266 130.781 14.7502 130.858 14.6739C130.934 14.5975 130.991 14.5021 131.068 14.4448C131.144 14.3685 131.221 14.2921 131.297 14.2348C131.373 14.1776 131.469 14.1012 131.545 14.0439C131.64 13.9867 131.717 13.9294 131.812 13.8912C131.908 13.834 132.003 13.7958 132.099 13.7576C132.194 13.7194 132.29 13.6812 132.404 13.6431C132.499 13.6049 132.614 13.5858 132.709 13.5667C132.805 13.5476 132.919 13.5285 133.015 13.5094C133.225 13.4903 133.435 13.4903 133.645 13.5094C133.74 13.5285 133.855 13.5285 133.95 13.5667C134.046 13.5858 134.16 13.6049 134.256 13.6431C134.351 13.6812 134.447 13.7003 134.561 13.7576C134.657 13.7958 134.752 13.853 134.847 13.8912C134.943 13.9485 135.038 13.9867 135.115 14.0439C135.21 14.1012 135.287 14.1585 135.363 14.2348C135.439 14.3112 135.535 14.3685 135.592 14.4448C135.668 14.5212 135.745 14.5975 135.802 14.6739C135.859 14.7502 135.936 14.8457 135.993 14.922C136.05 15.0175 136.107 15.0939 136.146 15.1893C136.203 15.2847 136.241 15.3802 136.279 15.4756C136.317 15.5711 136.356 15.6665 136.394 15.7811C136.432 15.8765 136.451 15.9911 136.47 16.0865C136.489 16.1819 136.508 16.2965 136.527 16.3919C136.546 16.5065 136.546 16.6019 136.546 16.7165C136.546 16.831 136.546 16.9264 136.527 17.041C136.508 17.1555 136.508 17.251 136.47 17.3464C136.451 17.4418 136.432 17.5564 136.394 17.6518C136.356 17.7473 136.336 17.8618 136.279 17.9573C136.241 18.0527 136.184 18.1482 136.146 18.2436C136.088 18.339 136.05 18.4345 135.993 18.5109C135.936 18.6063 135.878 18.6827 135.802 18.759C135.726 18.8354 135.668 18.9117 135.592 18.9881C135.516 19.0644 135.439 19.1408 135.363 19.1981C135.287 19.2553 135.191 19.3317 135.115 19.389C135.019 19.4462 134.943 19.5035 134.847 19.5608C134.752 19.618 134.657 19.6562 134.561 19.6944C134.466 19.7326 134.37 19.7707 134.256 19.8089C134.16 19.8471 134.046 19.8662 133.95 19.8853C133.855 19.9044 133.74 19.9235 133.645 19.9426C133.568 19.9616 133.454 19.9616 133.339 19.9616Z" fill="#FEB902"/>
<path d="M119.958 16.6784C119.958 16.7548 119.958 16.8121 119.958 16.8884C119.958 16.9266 119.958 16.9648 119.958 17.003C119.958 17.022 119.958 17.0411 119.958 17.0793C119.958 17.1366 119.939 17.1938 119.939 17.2511C119.691 18.7974 118.278 20 116.655 20H108.657C107.378 20 106.29 19.2746 105.755 18.2056C106.653 15.4949 109.211 13.5287 112.208 13.5287H116.732C116.865 13.5287 116.98 13.5287 117.114 13.5478C117.152 13.5478 117.19 13.5478 117.228 13.5669C117.247 13.5669 117.266 13.5669 117.285 13.5669C117.362 13.586 117.438 13.605 117.514 13.6241C117.572 13.6432 117.629 13.6623 117.686 13.6623C117.743 13.6814 117.782 13.7005 117.839 13.7196C117.896 13.7387 117.953 13.7578 117.992 13.7768C118.03 13.7959 118.087 13.815 118.125 13.8341C118.163 13.8532 118.221 13.8723 118.259 13.9105C118.431 14.0059 118.603 14.1205 118.755 14.235C118.793 14.2732 118.832 14.2923 118.87 14.3304C118.908 14.3686 118.946 14.4068 118.984 14.4259C119.022 14.445 119.061 14.5022 119.099 14.5404C119.137 14.5786 119.175 14.6168 119.194 14.655C119.213 14.6931 119.252 14.7122 119.271 14.7504C119.309 14.8077 119.347 14.8459 119.385 14.9031C119.423 14.9413 119.442 14.9986 119.481 15.0367C119.5 15.0749 119.519 15.094 119.538 15.1322C119.576 15.1895 119.614 15.2658 119.652 15.3231C119.672 15.3613 119.691 15.3994 119.71 15.4567C119.729 15.4949 119.748 15.5522 119.767 15.6094C119.786 15.6667 119.805 15.7049 119.824 15.7621C119.843 15.8194 119.862 15.8576 119.862 15.9149C119.882 16.0103 119.92 16.1248 119.939 16.2203C119.939 16.2776 119.958 16.3157 119.958 16.373C119.958 16.4303 119.977 16.4875 119.977 16.5448C119.958 16.5639 119.958 16.6212 119.958 16.6784Z" fill="#09A4EF"/>
<path d="M119.939 17.0601C119.939 17.041 119.939 17.0219 119.939 16.9838V17.0029C119.958 17.0219 119.939 17.041 119.939 17.0601Z" fill="#E74437"/>
<path d="M26.8589 41.9716C25.0645 41.9716 23.6328 40.5208 23.6328 38.7455V25.5929C23.6328 23.7985 25.0836 22.3668 26.8589 22.3668C28.6342 22.3668 30.085 23.8176 30.085 25.5929V38.7264C30.085 40.5208 28.6342 41.9716 26.8589 41.9716Z" fill="url(#paint1_linear_403_199)"/>
<path d="M16.2261 41.9716C14.4317 41.9716 13 40.5208 13 38.7455V25.5929C13 23.7985 14.4508 22.3668 16.2261 22.3668C18.0014 22.3668 19.4522 23.8176 19.4522 25.5929V38.7264C19.4522 40.5208 18.0014 41.9716 16.2261 41.9716Z" fill="url(#paint2_linear_403_199)"/>
<defs>
<linearGradient id="paint0_linear_403_199" x1="37.4896" y1="44.1836" x2="37.4896" y2="22.7142" gradientUnits="userSpaceOnUse">
<stop stop-color="#FEB902"/>
<stop offset="0.3907" stop-color="#FEB703"/>
<stop offset="0.5315" stop-color="#FDB005"/>
<stop offset="0.6318" stop-color="#FBA509"/>
<stop offset="0.7129" stop-color="#F9940F"/>
<stop offset="0.7824" stop-color="#F67E16"/>
<stop offset="0.8428" stop-color="#F3631F"/>
<stop offset="0.8723" stop-color="#F15325"/>
</linearGradient>
<linearGradient id="paint1_linear_403_199" x1="26.8532" y1="44.1836" x2="26.8532" y2="22.7142" gradientUnits="userSpaceOnUse">
<stop offset="1.4385e-07" stop-color="#09A4EF"/>
<stop offset="0.3313" stop-color="#0BA3ED"/>
<stop offset="0.4506" stop-color="#12A1E7"/>
<stop offset="0.5357" stop-color="#1D9DDD"/>
<stop offset="0.6045" stop-color="#2E97CE"/>
<stop offset="0.6634" stop-color="#448FBB"/>
<stop offset="0.7156" stop-color="#6086A4"/>
<stop offset="0.7628" stop-color="#807A87"/>
<stop offset="0.8062" stop-color="#A66D67"/>
<stop offset="0.8448" stop-color="#CF5F43"/>
<stop offset="0.8723" stop-color="#F15325"/>
</linearGradient>
<linearGradient id="paint2_linear_403_199" x1="16.2167" y1="44.1836" x2="16.2167" y2="22.7142" gradientUnits="userSpaceOnUse">
<stop offset="5.32779e-09" stop-color="#80BC04"/>
<stop offset="0.3745" stop-color="#82BC04"/>
<stop offset="0.5094" stop-color="#89BC04"/>
<stop offset="0.6056" stop-color="#94BC04"/>
<stop offset="0.6833" stop-color="#A5BB03"/>
<stop offset="0.7499" stop-color="#BBBB03"/>
<stop offset="0.8089" stop-color="#D7BA03"/>
<stop offset="0.861" stop-color="#F6B902"/>
<stop offset="0.8723" stop-color="#FEB902"/>
</linearGradient>
</defs>
</svg>
