<svg width="119" height="28" viewBox="0 0 119 28" fill="none" xmlns="http://www.w3.org/2000/svg">
<path d="M87.2404 6.78935C87.2405 6.97656 87.2033 7.16196 87.131 7.33495C87.0587 7.50795 86.9526 7.66514 86.8189 7.79755C86.6852 7.92997 86.5264 8.03501 86.3517 8.10667C86.177 8.17834 85.9897 8.21523 85.8005 8.21523C85.6114 8.21523 85.4241 8.17834 85.2494 8.10667C85.0746 8.03501 84.9159 7.92997 84.7822 7.79755C84.6485 7.66514 84.5424 7.50795 84.4701 7.33495C84.3978 7.16196 84.3606 6.97656 84.3607 6.78935C84.3606 6.60213 84.3978 6.41673 84.4701 6.24374C84.5424 6.07075 84.6485 5.91355 84.7822 5.78114C84.9159 5.64872 85.0746 5.54368 85.2494 5.47202C85.4241 5.40035 85.6114 5.36346 85.8005 5.36346C85.9897 5.36346 86.177 5.40035 86.3517 5.47202C86.5264 5.54368 86.6852 5.64872 86.8189 5.78114C86.9526 5.91355 87.0587 6.07075 87.131 6.24374C87.2033 6.41673 87.2405 6.60213 87.2404 6.78935Z" fill="#999B9E"/>
<path d="M112.845 13.0493H109.18V16.6574H112.845V13.0493Z" fill="#999B9E"/>
<path d="M40.1591 13.0493H36.4943V16.6574H40.1591V13.0493Z" fill="#999B9E"/>
<path d="M29.1666 13.0493H25.5017V16.6574H29.1666V13.0493Z" fill="#999B9E"/>
<path d="M18.3408 13.0493H14.6759V16.6574H18.3408V13.0493Z" fill="#999B9E"/>
<path d="M7.12936 13.0493H3.46448V16.6574H7.12936V13.0493Z" fill="#999B9E"/>
<path d="M12.2661 5.84731H12.7009C15.5093 5.84731 16.8183 7.29675 17.3653 11.1621L18.2349 11.125L18.1189 4.99231H3.82798L3.68713 11.125L4.524 11.1621C4.66894 9.7127 4.84278 8.93211 5.22003 8.15153C5.88693 6.70187 7.27875 5.84731 8.98935 5.84731H9.59822V19.1901C9.59822 20.6025 9.51131 21.0485 9.16364 21.3831C8.87353 21.6432 8.29355 21.7547 7.62642 21.7547H6.95952V22.6466H14.9048V21.7547H14.2338C13.571 21.7547 12.9869 21.643 12.7011 21.3831C12.3532 21.0485 12.2663 20.6023 12.2663 19.1901V5.84731" fill="#ED008C"/>
<path d="M50.0695 22.6468L54.6998 7.06012V19.2916C54.6998 20.6264 54.621 21.0955 54.307 21.4202C54.0713 21.6726 53.525 21.781 52.9193 21.781H52.6838V22.6468H59.2288V21.781H58.8882C58.2862 21.781 57.7364 21.6728 57.5009 21.4202C57.1865 21.0955 57.108 20.6264 57.108 19.2916V8.86429C57.108 7.52922 57.1865 7.02412 57.5009 6.69946C57.7626 6.48302 58.2862 6.33858 58.8882 6.33858H59.2288V5.50861H54.15L50.3277 18.1007L46.5877 5.50861H41.5351V6.33858H42.0061C43.3939 6.33858 43.6555 6.62725 43.6555 8.3592V18.2811C43.6555 19.8687 43.577 20.5182 43.3413 20.9873C43.0796 21.4564 42.526 21.781 41.9538 21.781H41.5349V22.6468H46.9277V21.781H46.5875C45.907 21.781 45.357 21.5284 45.0392 21.0233C44.7288 20.5182 44.6503 20.0491 44.6503 18.2811V7.06034L49.254 22.647H50.0695" fill="#999B9E"/>
<path d="M64.8571 10.4516C61.6109 10.4516 59.4905 12.9051 59.4905 16.7659C59.4905 20.4822 61.6109 23.0079 64.7752 23.0079C67.9686 23.0079 70.0892 20.4822 70.0892 16.7299C70.0892 13.0133 67.9686 10.4516 64.8571 10.4516ZM64.7524 11.2814C65.6912 11.2814 66.5026 11.8587 66.9477 12.8329C67.3665 13.7348 67.5497 14.9617 67.5497 16.7296C67.5497 20.3736 66.6334 22.1775 64.7749 22.1775C62.9199 22.1775 62.0259 20.3733 62.0259 16.6934C62.0259 14.9615 62.2127 13.7348 62.6316 12.8329C63.0471 11.8949 63.8885 11.2814 64.7524 11.2814Z" fill="#999B9E"/>
<path d="M74.4387 5.32816L70.7211 5.50859V6.30235H70.9006C72.0003 6.30235 72.2396 6.66323 72.2396 8.35896V20.0851C72.2396 21.6004 72.1873 21.9975 71.978 22.6468H72.8419C73.4924 21.6004 73.6533 21.4202 73.9152 21.4202C74.0424 21.4202 74.1693 21.4562 74.3566 21.6366C75.6428 22.6468 76.1926 22.8632 77.3707 22.8632C80.1942 22.8632 82.2363 20.2293 82.2363 16.477C82.2363 12.9411 80.3476 10.5598 77.5241 10.5598C76.0581 10.5598 74.9885 11.2453 74.4387 12.472V5.32816ZM77.1539 11.4618C78.8333 11.4618 79.697 13.1937 79.697 16.5852C79.697 20.1571 78.8069 21.9973 77.1052 21.9973C75.2203 21.9973 74.229 20.1209 74.229 16.6934C74.229 14.9614 74.4649 13.771 75.0146 12.8688C75.5081 12.0031 76.3498 11.4618 77.1539 11.4618Z" fill="#999B9E"/>
<path d="M87.0796 10.632L83.2611 10.8485V11.6422H83.5492C84.6447 11.6422 84.8807 12.0031 84.8807 13.6628V19.7604C84.8807 21.4204 84.645 21.8173 83.5492 21.8173H83.1339V22.6468H88.8339V21.8173H88.4222C87.3189 21.8173 87.0798 21.4562 87.0798 19.7604V10.632" fill="#999B9E"/>
<path d="M93.7026 5.32816L89.8841 5.50859V6.30235H90.1688C91.2682 6.30235 91.5037 6.66323 91.5037 8.35896V19.7602C91.5037 21.4562 91.2682 21.817 90.1688 21.817H89.7535V22.6466H95.4567V21.817H95.0378C93.9345 21.817 93.7026 21.4559 93.7026 19.7602V5.32816Z" fill="#999B9E"/>
<path d="M105.873 16.6574C105.745 12.8329 103.86 10.4516 101.011 10.4516C98.258 10.4516 96.2721 13.0493 96.2721 16.6574C96.2721 20.518 98.2318 23.0077 101.269 23.0077C103.232 23.0077 104.593 21.9973 105.719 19.7602L104.934 19.3634C104.018 21.2395 103.102 21.9973 101.688 21.9973C99.6196 21.9973 98.7333 20.41 98.7067 16.6574H105.873ZM98.7331 15.7552C98.7556 13.0493 99.6678 11.3536 101.138 11.3536C102.604 11.3536 103.467 13.0133 103.441 15.7552H98.7331Z" fill="#999B9E"/>
<path d="M114.219 10.1574C114.44 10.1574 114.656 10.2121 114.867 10.3216C115.078 10.4312 115.242 10.5879 115.359 10.7916C115.477 10.9953 115.536 11.2078 115.536 11.4291C115.536 11.6481 115.478 11.8587 115.362 12.0606C115.246 12.2628 115.083 12.4197 114.875 12.5315C114.665 12.6432 114.447 12.6992 114.219 12.6992C113.991 12.6992 113.772 12.6434 113.563 12.5315C113.354 12.4197 113.191 12.263 113.075 12.0606C112.959 11.8587 112.901 11.6481 112.901 11.4291C112.901 11.2078 112.959 10.9953 113.078 10.7916C113.196 10.5879 113.36 10.431 113.571 10.3216C113.782 10.2121 113.998 10.1574 114.219 10.1574ZM114.219 10.3691C114.034 10.3691 113.854 10.4147 113.679 10.5062C113.504 10.5978 113.367 10.7282 113.268 10.8981C113.17 11.068 113.121 11.2451 113.121 11.4289C113.121 11.6117 113.169 11.7869 113.266 11.9546C113.363 12.1223 113.499 12.2529 113.673 12.3466C113.848 12.4404 114.03 12.4871 114.219 12.4871C114.409 12.4871 114.59 12.4404 114.765 12.3466C114.939 12.2531 115.075 12.1225 115.171 11.9546C115.268 11.7869 115.316 11.6117 115.316 11.4289C115.316 11.2451 115.267 11.068 115.169 10.8981C115.07 10.7284 114.934 10.5978 114.758 10.5062C114.582 10.4147 114.403 10.3691 114.219 10.3691ZM113.641 12.1302V10.7626H114.129C114.296 10.7626 114.417 10.7754 114.491 10.8006C114.566 10.8259 114.625 10.87 114.669 10.933C114.714 10.9958 114.736 11.0627 114.736 11.1334C114.736 11.2333 114.699 11.3204 114.625 11.3944C114.551 11.4684 114.452 11.5101 114.33 11.5191C114.38 11.5393 114.42 11.5634 114.45 11.5915C114.508 11.6453 114.577 11.7357 114.66 11.8626L114.833 12.1304H114.553L114.426 11.9146C114.327 11.7458 114.248 11.64 114.188 11.597C114.146 11.5652 114.085 11.5494 114.005 11.5494H113.87V12.1304H113.641V12.1302ZM113.87 11.3615H114.149C114.282 11.3615 114.373 11.3424 114.422 11.304C114.47 11.2655 114.494 11.2148 114.494 11.1516C114.494 11.111 114.483 11.0746 114.459 11.0425C114.436 11.0105 114.404 10.9863 114.362 10.9705C114.32 10.9547 114.243 10.947 114.131 10.947H113.87V11.3615Z" fill="#999B9E"/>
</svg>
